# xmcd
#
# Track frame offsets: 
#        150
#        23667
#        48924
#        84810
#        112739
#        140258
#        167134
#        197373
#        225281
#        246518
#        268862
#
# Disc length: 3805 seconds
#
# Revision: 4
# Processed by: cddbd v1.5.2PL0 Copyright (c) Steve Scherf et al.
# Submitted via: ExactAudioCopy v1.0b1
#
DISCID=7d0edb0b
DTITLE=Joshua Redman - Back East
DYEAR=2007
DGENRE=Jazz
TTITLE0=The Surrey With The Fringe On Top
TTITLE1=East Of The Sun (And West Of The Moon)
TTITLE2=Zarafah
TTITLE3=Indian Song
TTITLE4=I'm An Old Cowhand
TTITLE5=Wagon Wheels
TTITLE6=Back East
TTITLE7=Mantra #5
TTITLE8=Indonesia
TTITLE9=India
TTITLE10=GJ
EXTD=YEAR: 2007
EXTT0=
EXTT1=
EXTT2=
EXTT3=
EXTT4=
EXTT5=
EXTT6=
EXTT7=
EXTT8=
EXTT9=
EXTT10=
PLAYORDER=
